<?xml version="1.0" standalone="no"?>
<!DOCTYPE svg PUBLIC "-//W3C//DTD SVG 20010904//EN"
 "http://www.w3.org/TR/2001/REC-SVG-20010904/DTD/svg10.dtd">
<svg version="1.0" xmlns="http://www.w3.org/2000/svg"
 width="260.000000pt" height="260.000000pt" viewBox="0 0 260.000000 260.000000"
 preserveAspectRatio="xMidYMid meet">
<metadata>
Created by potrace 1.11, written by Peter Selinger 2001-2013
</metadata>
<g transform="translate(0.000000,260.000000) scale(0.100000,-0.100000)"
fill="#000000" stroke="none">
<path d="M0 1300 l0 -1300 1300 0 1300 0 0 1300 0 1300 -1300 0 -1300 0 0
-1300z m1352 515 c207 -43 376 -207 417 -403 26 -123 8 -270 -45 -379 -54
-113 -187 -225 -311 -263 -311 -96 -631 60 -716 348 l-21 72 -68 0 -68 0 0
-215 0 -215 -120 0 -120 0 0 525 0 525 120 0 120 0 0 -205 0 -206 71 3 70 3
22 65 c87 258 364 406 649 345z m968 -75 l0 -40 -70 0 -70 0 0 -80 0 -80 70 0
70 0 0 -40 0 -40 -180 0 -180 0 0 40 0 40 75 0 75 0 0 80 0 80 -75 0 -75 0 0
40 0 40 180 0 180 0 0 -40z m-2 -447 l-3 -38 -108 -5 -108 -5 108 -80 c101
-75 108 -83 111 -118 l3 -37 -181 0 -181 0 3 38 3 37 109 5 110 5 -112 82
c-106 78 -112 84 -112 118 l0 35 181 0 180 0 -3 -37z m-3 -528 l0 -150 -32 -3
-33 -3 0 60 0 61 -146 0 -145 0 3 38 3 37 143 3 142 3 0 55 0 55 33 -3 32 -3
0 -150z"/>
<path d="M1113 1600 c-66 -27 -128 -87 -161 -158 -24 -50 -27 -70 -27 -157 0
-87 3 -107 26 -156 31 -66 88 -124 149 -153 70 -32 198 -30 266 6 187 98 229
376 82 543 -74 85 -224 118 -335 75z"/>
</g>
</svg>
